<?xml version="1.0" standalone="no"?>
<!DOCTYPE svg PUBLIC "-//W3C//DTD SVG 20010904//EN"
 "http://www.w3.org/TR/2001/REC-SVG-20010904/DTD/svg10.dtd">
<svg version="1.0" xmlns="http://www.w3.org/2000/svg"
 width="500.000000pt" height="500.000000pt" viewBox="0 0 500.000000 500.000000"
 preserveAspectRatio="xMidYMid meet">

<g transform="translate(0.000000,500.000000) scale(0.100000,-0.100000)"
fill="#000000" stroke="none">
<path d="M2778 4486 c-82 -22 -114 -52 -213 -201 -166 -250 -568 -971 -799
-1434 -150 -299 -340 -726 -330 -742 2 -4 24 -14 49 -22 50 -17 99 -10 133 21
11 9 54 60 95 113 217 274 790 889 829 889 4 0 -17 -42 -46 -92 -200 -351
-307 -605 -306 -732 1 -58 20 -118 47 -148 68 -76 261 -95 389 -38 24 10 44
16 44 13 0 -3 -23 -45 -50 -93 -48 -82 -60 -94 -198 -206 -179 -145 -355 -313
-389 -372 -53 -90 -50 -177 8 -226 66 -56 147 -51 250 15 118 77 263 237 374
414 85 136 178 227 383 373 136 98 248 168 447 279 82 46 158 93 169 103 15
15 18 32 18 94 -1 42 -6 85 -13 97 -25 47 -105 3 -454 -246 -126 -90 -231
-163 -233 -161 -2 2 26 48 61 102 85 132 419 674 491 797 69 118 79 148 65
199 -12 46 -49 68 -111 68 -85 0 -362 -180 -424 -275 -15 -22 -14 -28 3 -62
17 -36 21 -38 71 -41 28 -2 52 -5 52 -7 0 -2 -38 -62 -83 -132 -46 -70 -96
-149 -111 -175 -16 -27 -34 -48 -42 -48 -8 0 -65 -48 -127 -106 -181 -171
-283 -233 -336 -205 -21 11 -26 32 -22 80 3 37 96 239 256 562 157 315 167
348 126 401 -43 54 -175 65 -263 21 -133 -68 -331 -237 -509 -435 -44 -48 -79
-86 -79 -84 0 11 188 358 285 526 143 247 233 395 456 746 164 258 179 285
179 326 0 33 -5 48 -16 52 -24 9 -74 6 -126 -8z"/>
<path d="M3830 3917 c-57 -27 -163 -132 -184 -181 -20 -49 -20 -115 0 -144 21
-31 92 -30 162 3 67 31 169 127 194 183 28 63 28 120 -1 143 -32 26 -112 24
-171 -4z"/>
<path d="M1150 635 c0 -95 16 -133 22 -52 l3 42 50 0 50 0 3 -42 c6 -79 22
-44 22 46 0 92 -16 136 -22 59 l-3 -43 -50 0 -50 0 -3 43 c-6 80 -22 42 -22
-53z"/>
<path d="M1370 702 c-70 -71 -11 -182 85 -158 40 10 65 45 65 91 0 50 -30 83
-83 92 -31 5 -40 1 -67 -25z m104 -13 c52 -41 23 -129 -44 -129 -67 0 -96 88
-44 129 15 12 34 21 44 21 10 0 29 -9 44 -21z"/>
<path d="M1570 652 c0 -88 14 -112 63 -112 49 0 67 31 67 115 0 43 -4 75 -10
75 -6 0 -10 -31 -10 -73 0 -77 -9 -97 -45 -97 -35 0 -45 20 -45 91 0 37 -4 71
-10 74 -6 4 -10 -23 -10 -73z"/>
<path d="M1757 712 c-10 -10 -17 -25 -17 -34 0 -18 27 -43 57 -52 28 -9 37
-36 18 -55 -12 -13 -21 -13 -45 -4 -33 12 -41 0 -11 -17 29 -15 56 -12 74 8
24 26 21 48 -8 69 -70 49 -70 50 -56 67 10 12 23 15 45 11 29 -6 30 -5 12 10
-26 20 -49 19 -69 -3z"/>
<path d="M1907 712 c-10 -10 -17 -25 -17 -34 0 -18 27 -43 57 -52 28 -9 37
-36 18 -55 -12 -13 -21 -13 -45 -4 -33 12 -41 0 -11 -17 29 -15 56 -12 74 8
24 26 21 48 -8 69 -70 49 -70 50 -56 67 10 12 23 15 45 11 29 -6 30 -5 12 10
-26 20 -49 19 -69 -3z"/>
<path d="M2040 635 l0 -95 60 0 c33 0 60 4 60 10 0 6 -23 10 -51 10 l-50 0 3
33 c3 29 7 33 43 38 l40 6 -42 2 c-42 1 -43 2 -43 36 0 35 0 35 45 35 25 0 45
5 45 10 0 6 -25 10 -55 10 l-55 0 0 -95z"/>
<path d="M2210 637 c0 -109 17 -134 22 -31 l3 66 33 -46 c18 -25 36 -46 40
-46 4 0 21 19 37 43 l30 42 3 -62 c5 -98 22 -74 22 30 l0 92 -28 -35 c-15 -19
-36 -45 -47 -58 l-20 -23 -47 63 -48 62 0 -97z"/>
<path d="M2560 636 c0 -86 -2 -96 -22 -110 -30 -21 -15 -33 17 -12 24 16 25
21 25 116 0 60 -4 100 -10 100 -6 0 -10 -38 -10 -94z"/>
<path d="M2663 635 c-41 -94 -43 -133 -3 -55 16 31 26 40 46 40 20 0 29 -8 42
-40 15 -36 32 -53 32 -32 0 7 -69 174 -74 179 -1 2 -21 -40 -43 -92z m57 8 c0
-7 -7 -13 -15 -13 -16 0 -19 9 -9 35 5 13 8 14 15 3 5 -7 9 -19 9 -25z"/>
<path d="M2830 638 c0 -59 4 -98 10 -98 6 0 10 31 10 73 l1 72 69 -72 70 -73
0 96 c0 61 -4 93 -10 89 -5 -3 -10 -36 -10 -73 l0 -67 -70 75 -69 75 -1 -97z"/>
<path d="M3040 635 c0 -95 16 -133 22 -52 3 42 3 42 48 48 l45 5 -45 5 c-42 4
-45 6 -48 37 l-3 32 51 0 c32 0 49 4 45 10 -3 6 -31 10 -61 10 l-54 0 0 -95z"/>
<path d="M3430 702 c-70 -71 -11 -182 85 -158 40 10 65 45 65 91 0 50 -30 83
-83 92 -31 5 -40 1 -67 -25z m104 -13 c52 -41 23 -129 -44 -129 -67 0 -96 88
-44 129 15 12 34 21 44 21 10 0 29 -9 44 -21z"/>
<path d="M3630 652 c0 -88 14 -112 63 -112 49 0 67 31 67 115 0 43 -4 75 -10
75 -6 0 -10 -31 -10 -73 0 -77 -9 -97 -45 -97 -35 0 -45 20 -45 91 0 37 -4 71
-10 74 -6 4 -10 -23 -10 -73z"/>
<path d="M3810 636 c0 -57 4 -96 10 -96 6 0 10 36 10 89 0 50 -4 93 -10 96 -6
4 -10 -28 -10 -89z"/>
<path d="M3239 638 c-19 -45 -35 -86 -37 -90 -2 -4 1 -8 6 -8 5 0 17 18 26 40
13 34 20 40 44 40 24 0 32 -7 47 -40 10 -22 22 -40 27 -40 5 0 8 4 6 8 -45
112 -73 172 -79 172 -4 0 -22 -37 -40 -82z m61 0 c0 -4 -9 -8 -21 -8 -15 0
-19 4 -15 16 3 9 6 21 6 27 1 13 30 -22 30 -35z"/>
</g>
</svg>
